<svg xmlns="http://www.w3.org/2000/svg" width="398.445" height="315.688" viewBox="0 0 398.445 315.688">
  <g id="Group_16" data-name="Group 16" transform="translate(-285.582 -3964.424)">
    <path id="Path_10" data-name="Path 10" d="M167.846,3664.144c0,78.483,152.992,229.488,260.285,198.691s130.142-210.613,34.771-272.207S167.846,3574.683,167.846,3664.144Z" transform="translate(160.988 402.062)" fill="#fff"/>
    <path id="Path_11" data-name="Path 11" d="M167.033,3604.578c0,19.537,51.975,40.247,87.856,32.581s43.521-52.428,11.628-67.761S167.033,3582.308,167.033,3604.578Z" transform="matrix(-0.839, -0.545, 0.545, -0.839, -1415.688, 7360.971)" fill="#fff"/>
    <path id="Path_12" data-name="Path 12" d="M167.846,3574.132c0,9.076,8.3,21.715,19.572,18.121s12.732-20.232,5.251-26.623S168.323,3559.733,167.846,3574.132Z" transform="translate(-3179.179 3328.558) rotate(-74)" fill="#fff"/>
  </g>
</svg>
